<mxfile host="app.diagrams.net" modified="2023-05-15T08:44:08.292Z" agent="Mozilla/5.0 (Macintosh; Intel Mac OS X 10_15_7) AppleWebKit/537.36 (KHTML, like Gecko) Chrome/113.0.0.0 Safari/537.36" version="21.3.0" etag="1IMTlBE9IODGye6OJdAO" type="github">
  <diagram name="Page-1" id="2rUvvO3Smx6G542HTGrR">
    <mxGraphModel>
      <root>
        <mxCell id="0" />
        <mxCell id="1" parent="0" />
      </root>
    </mxGraphModel>
  </diagram>
</mxfile>
